<svg width="50" height="54" viewBox="0 0 50 54" fill="none" xmlns="http://www.w3.org/2000/svg">
<circle cx="24.5" cy="24.5" r="24.5" fill="#F66A15"/>
<g clip-path="url(#clip0_5:10)">
<path d="M35.713 16.077C35.4317 15.7394 35.0796 15.468 34.6815 15.2818C34.2835 15.0957 33.8494 14.9995 33.41 15H17.242L17.2 14.649C17.114 13.9194 16.7634 13.2467 16.2145 12.7585C15.6656 12.2702 14.9566 12.0003 14.222 12H14C13.7348 12 13.4804 12.1054 13.2929 12.2929C13.1054 12.4804 13 12.7348 13 13C13 13.2652 13.1054 13.5196 13.2929 13.7071C13.4804 13.8946 13.7348 14 14 14H14.222C14.4669 14 14.7033 14.09 14.8864 14.2527C15.0694 14.4155 15.1863 14.6397 15.215 14.883L16.591 26.583C16.7339 27.7998 17.3185 28.9218 18.2339 29.736C19.1493 30.5502 20.3319 31 21.557 31H32C32.2652 31 32.5196 30.8946 32.7071 30.7071C32.8946 30.5196 33 30.2652 33 30C33 29.7348 32.8946 29.4804 32.7071 29.2929C32.5196 29.1054 32.2652 29 32 29H21.557C20.9381 28.9983 20.3348 28.8051 19.8299 28.4471C19.3251 28.089 18.9433 27.5835 18.737 27H30.657C31.8293 27.0001 32.9643 26.5882 33.8638 25.8364C34.7633 25.0846 35.37 24.0407 35.578 22.887L36.363 18.533C36.4414 18.101 36.4237 17.6571 36.3114 17.2326C36.1991 16.8082 35.9948 16.4137 35.713 16.077ZM34.4 18.178L33.614 22.532C33.4891 23.225 33.1245 23.852 32.5839 24.3032C32.0433 24.7544 31.3612 25.0011 30.657 25H18.419L17.478 17H33.41C33.5569 16.9991 33.7022 17.0306 33.8355 17.0923C33.9689 17.1539 34.087 17.2441 34.1815 17.3566C34.276 17.4691 34.3446 17.601 34.3824 17.7429C34.4201 17.8849 34.4262 18.0334 34.4 18.178Z" fill="white"/>
<path d="M20.0001 36.0006C21.1047 36.0006 22.0001 35.1052 22.0001 34.0006C22.0001 32.8961 21.1047 32.0006 20.0001 32.0006C18.8956 32.0006 18.0001 32.8961 18.0001 34.0006C18.0001 35.1052 18.8956 36.0006 20.0001 36.0006Z" fill="white"/>
<path d="M30 36.0006C31.1046 36.0006 32 35.1052 32 34.0006C32 32.8961 31.1046 32.0006 30 32.0006C28.8954 32.0006 28 32.8961 28 34.0006C28 35.1052 28.8954 36.0006 30 36.0006Z" fill="white"/>
</g>
<circle cx="41" cy="45" r="9" fill="#FFAF19"/>
<path d="M39.8477 48H39.1211V43.1836L37.6641 43.7188V43.0625L39.7344 42.2852H39.8477V48ZM45.6914 48H41.9648V47.4805L43.9336 45.293C44.2253 44.9622 44.4258 44.694 44.5352 44.4883C44.6471 44.2799 44.7031 44.0651 44.7031 43.8438C44.7031 43.5469 44.6133 43.3034 44.4336 43.1133C44.2539 42.9232 44.0143 42.8281 43.7148 42.8281C43.3555 42.8281 43.0755 42.931 42.875 43.1367C42.6771 43.3398 42.5781 43.6237 42.5781 43.9883H41.8555C41.8555 43.4648 42.0234 43.0417 42.3594 42.7188C42.6979 42.3958 43.1497 42.2344 43.7148 42.2344C44.2435 42.2344 44.6615 42.3737 44.9688 42.6523C45.276 42.9284 45.4297 43.2969 45.4297 43.7578C45.4297 44.3177 45.0729 44.9844 44.3594 45.7578L42.8359 47.4102H45.6914V48Z" fill="black"/>
<defs>
<clipPath id="clip0_5:10">
<rect width="24" height="24" fill="white" transform="translate(13 12)"/>
</clipPath>
</defs>
</svg>
